# xmcd
#
# Track frame offsets: 
#        300
#        26311
#        55870
#        69790
#        94367
#        131114
#        155852
#        179720
#        202047
#        236902
#
# Disc length: 3408 seconds
#
# Revision: 4
# Processed by: cddbd v1.5.2PL0 Copyright (c) Steve Scherf et al.
# Submitted via: ExactAudioCopy v1.0b1
#
DISCID=950d4c0a
DTITLE=Blindside Blues Band - To The Station
DYEAR=1996
DGENRE=General Blues
TTITLE0=To The Station
TTITLE1=I'm Not Your Man
TTITLE2=Take His Keys
TTITLE3=Whirlwind
TTITLE4=Natural Thang
TTITLE5=Worn Out Shoe
TTITLE6=Fade Away
TTITLE7=Get Outta My Way
TTITLE8=Hurting Me
TTITLE9=All I Need
EXTD=1996 Shrapnel Records\n YEAR: 1996
EXTT0=
EXTT1=
EXTT2=
EXTT3=
EXTT4=
EXTT5=
EXTT6=
EXTT7=
EXTT8=
EXTT9=
PLAYORDER=
